 http://www.imdb.com/title/tt0120338/

Source: Titanic.1997.720p.BluRay.X264-AMIABLE Thanks!

Subs: Arabic, Brazilian, Bulgarian, Danish, Dutch, English, Finnish, Greek, Indonesian, Italian, Norwegian, Portuguese, Romanian, Slovenian, Spanish, Swedish and Vietnamese.

Sample and Screens included.

General
Complete name                            : Titanic-720p MP4 AAC x264 BRRip 1997-CC.mp4
Format                                   : MPEG-4
Format profile                           : Base Media
Codec ID                                 : isom
File size                                : 3.45 GiB
Duration                                 : 3h 14mn
Overall bit rate mode                    : Variable
Overall bit rate                         : 2 538 Kbps
Encoded date                             : UTC 2012-09-13 14:31:48

Video
ID                                       : 1
Format                                   : AVC
Format/Info                              : Advanced Video Codec
Format profile                           : High@L3.1
Format settings, CABAC                   : Yes
Format settings, ReFrames                : 5 frames
Codec ID                                 : avc1
Codec ID/Info                            : Advanced Video Coding
Duration                                 : 3h 14mn
Bit rate mode                            : Variable
Bit rate                                 : 2 217 Kbps
Maximum bit rate                         : 25.0 Mbps
Width                                    : 1 280 pixels
Height                                   : 544 pixels
Display aspect ratio                     : 2.35:1
Frame rate mode                          : Constant
Frame rate                               : 23.976 fps
Color space                              : YUV
Chroma subsampling                       : 4:2:0
Bit depth                                : 8 bits
Scan type                                : Progressive
Bits/(Pixel*Frame)                       : 0.133
Stream size                              : 3.02 GiB (87%)
Title                                    : ripbot
Writing library                          : x264 core 104 r1683 62997d6

Audio
ID                                       : 2
Format                                   : AAC
Format/Info                              : Advanced Audio Codec
Format profile                           : LC
Codec ID                                 : 40
Duration                                 : 3h 14mn
Bit rate mode                            : Variable
Bit rate                                 : 317 Kbps
Maximum bit rate                         : 336 Kbps
Channel(s)                               : 6 channels
Channel positions                        : Front: L C R, Side: L R, LFE
Sampling rate                            : 48.0 KHz
Compression mode                         : Lossy
Stream size                              : 442 MiB (13%)
Title                                    : Imported with GPAC 0.4.6-DEV (internal rev. 5)

Enjoy...

Requested by cmptrluvr's. 

Coming up soon: Batman Begins & The Dark Knight, Harvey, Starsky & Hutch, Taking of Pelham and more...